REM DIRINDEX 1\2,1\3,1\4,1\6,1\5\7,1\5\8
REM DIRNAME folder01,folder02,folder03,folder04,folder05,folder06,folder07,folder08
TITLE ""
FILE "DB4500_5th_3B_07.mp3" MP3
  TRACK 01 AUDIO
    TITLE "0:"
    INDEX 01 00:00:00
  TRACK 02 AUDIO
    TITLE "2:cjc114_1856"
    INDEX 01 00:00:09
  TRACK 03 AUDIO
    TITLE "0:"
    INDEX 01 00:01:28
  TRACK 04 AUDIO
    TITLE "3:cjc114_1857"
    INDEX 01 00:01:54
  TRACK 05 AUDIO
    TITLE "0:"
    INDEX 01 00:03:00
  TRACK 06 AUDIO
    TITLE "4:cjc114_1858"
    INDEX 01 00:03:25
  TRACK 07 AUDIO
    TITLE "0:"
    INDEX 01 00:06:06
  TRACK 08 AUDIO
    TITLE "2:cjc114_1859"
    INDEX 01 00:06:55
  TRACK 09 AUDIO
    TITLE "0:"
    INDEX 01 00:07:51
  TRACK 10 AUDIO
    TITLE "3:cjc114_1860"
    INDEX 01 00:07:74
  TRACK 11 AUDIO
    TITLE "0:"
    INDEX 01 00:09:08
  TRACK 12 AUDIO
    TITLE "4:cjc114_1861"
    INDEX 01 00:09:34
  TRACK 13 AUDIO
    TITLE "0:"
    INDEX 01 00:13:33
  TRACK 14 AUDIO
    TITLE "2:cjc114_1862"
    INDEX 01 00:14:09
  TRACK 15 AUDIO
    TITLE "0:"
    INDEX 01 00:15:15
  TRACK 16 AUDIO
    TITLE "3:cjc114_1863"
    INDEX 01 00:15:42
  TRACK 17 AUDIO
    TITLE "0:"
    INDEX 01 00:16:48
  TRACK 18 AUDIO
    TITLE "4:cjc114_1864"
    INDEX 01 00:16:71
  TRACK 19 AUDIO
    TITLE "0:"
    INDEX 01 00:19:28
  TRACK 20 AUDIO
    TITLE "4:cjc114_1865"
    INDEX 01 00:20:00
  TRACK 21 AUDIO
    TITLE "0:"
    INDEX 01 00:22:25
  TRACK 22 AUDIO
    TITLE "2:cjc114_1866"
    INDEX 01 00:23:03
  TRACK 23 AUDIO
    TITLE "0:"
    INDEX 01 00:24:29
  TRACK 24 AUDIO
    TITLE "3:cjc114_1867"
    INDEX 01 00:24:53
  TRACK 25 AUDIO
    TITLE "0:"
    INDEX 01 00:26:28
  TRACK 26 AUDIO
    TITLE "4:cjc114_1868"
    INDEX 01 00:26:52
  TRACK 27 AUDIO
    TITLE "0:"
    INDEX 01 00:29:33
  TRACK 28 AUDIO
    TITLE "2:cjc114_1869"
    INDEX 01 00:30:06
  TRACK 29 AUDIO
    TITLE "0:"
    INDEX 01 00:31:26
  TRACK 30 AUDIO
    TITLE "3:cjc114_1870"
    INDEX 01 00:31:51
  TRACK 31 AUDIO
    TITLE "0:"
    INDEX 01 00:33:13
  TRACK 32 AUDIO
    TITLE "4:cjc114_1871"
    INDEX 01 00:33:36
  TRACK 33 AUDIO
    TITLE "0:"
    INDEX 01 00:37:40
  TRACK 34 AUDIO
    TITLE "2:cjc114_1872"
    INDEX 01 00:38:14
  TRACK 35 AUDIO
    TITLE "0:"
    INDEX 01 00:39:31
  TRACK 36 AUDIO
    TITLE "3:cjc114_1873"
    INDEX 01 00:39:56
  TRACK 37 AUDIO
    TITLE "0:"
    INDEX 01 00:41:49
  TRACK 38 AUDIO
    TITLE "4:cjc114_1874"
    INDEX 01 00:42:00
  TRACK 39 AUDIO
    TITLE "0:"
    INDEX 01 00:44:54
  TRACK 40 AUDIO
    TITLE "2:cjc114_1875"
    INDEX 01 00:45:28
  TRACK 41 AUDIO
    TITLE "0:"
    INDEX 01 00:46:47
  TRACK 42 AUDIO
    TITLE "3:cjc114_1876"
    INDEX 01 00:46:70
  TRACK 43 AUDIO
    TITLE "0:"
    INDEX 01 00:48:40
  TRACK 44 AUDIO
    TITLE "4:cjc114_1877"
    INDEX 01 00:48:65
  TRACK 45 AUDIO
    TITLE "0:"
    INDEX 01 00:52:67
  TRACK 46 AUDIO
    TITLE "2:cjc114_1878"
    INDEX 01 00:53:37
  TRACK 47 AUDIO
    TITLE "0:"
    INDEX 01 00:54:58
  TRACK 48 AUDIO
    TITLE "3:cjc114_1879"
    INDEX 01 00:55:12
  TRACK 49 AUDIO
    TITLE "0:"
    INDEX 01 00:56:33
  TRACK 50 AUDIO
    TITLE "4:cjc114_1880"
    INDEX 01 00:56:63
  TRACK 51 AUDIO
    TITLE "0:"
    INDEX 01 01:00:06
  TRACK 52 AUDIO
    TITLE "2:cjc114_1881"
    INDEX 01 01:00:59
  TRACK 53 AUDIO
    TITLE "0:"
    INDEX 01 01:02:06
  TRACK 54 AUDIO
    TITLE "3:cjc114_1882"
    INDEX 01 01:02:36
  TRACK 55 AUDIO
    TITLE "0:"
    INDEX 01 01:03:51
  TRACK 56 AUDIO
    TITLE "4:cjc114_1883"
    INDEX 01 01:04:03
  TRACK 57 AUDIO
    TITLE "0:"
    INDEX 01 01:08:01
  TRACK 58 AUDIO
    TITLE "2:cjc114_1884"
    INDEX 01 01:08:54
  TRACK 59 AUDIO
    TITLE "0:"
    INDEX 01 01:09:65
  TRACK 60 AUDIO
    TITLE "3:cjc114_1885"
    INDEX 01 01:10:20
  TRACK 61 AUDIO
    TITLE "0:"
    INDEX 01 01:11:51
  TRACK 62 AUDIO
    TITLE "4:cjc114_1886"
    INDEX 01 01:12:01
  TRACK 63 AUDIO
    TITLE "0:"
    INDEX 01 01:15:13
  TRACK 64 AUDIO
    TITLE "4:cjc114_1887"
    INDEX 01 01:15:50
  TRACK 65 AUDIO
    TITLE "0:"
    INDEX 01 01:18:47
  TRACK 66 AUDIO
    TITLE "2:cjc114_1888"
    INDEX 01 01:19:27
  TRACK 67 AUDIO
    TITLE "0:"
    INDEX 01 01:20:38
  TRACK 68 AUDIO
    TITLE "3:cjc114_1889"
    INDEX 01 01:20:65
  TRACK 69 AUDIO
    TITLE "0:"
    INDEX 01 01:22:25
  TRACK 70 AUDIO
    TITLE "4:cjc114_1890"
    INDEX 01 01:22:54
  TRACK 71 AUDIO
    TITLE "0:"
    INDEX 01 01:25:62
  TRACK 72 AUDIO
    TITLE "4:cjc114_1891"
    INDEX 01 01:26:38
  TRACK 73 AUDIO
    TITLE "0:"
    INDEX 01 01:29:31
  TRACK 74 AUDIO
    TITLE "2:cjc114_1892"
    INDEX 01 01:30:09
  TRACK 75 AUDIO
    TITLE "0:"
    INDEX 01 01:31:16
  TRACK 76 AUDIO
    TITLE "3:cjc114_1893"
    INDEX 01 01:31:45
  TRACK 77 AUDIO
    TITLE "0:"
    INDEX 01 01:32:47
  TRACK 78 AUDIO
    TITLE "4:cjc114_1894"
    INDEX 01 01:32:74
  TRACK 79 AUDIO
    TITLE "0:"
    INDEX 01 01:36:41
